<svg xmlns="http://www.w3.org/2000/svg" width="130.906" height="149.53" viewBox="0 0 130.906 149.53">
  <defs>
    <style>
      .cls-1 {
        fill: #fff;
        fill-rule: evenodd;
      }
    </style>
  </defs>
  <path id="ico1.svg" class="cls-1" d="M586.626,1206.44c0-23.36-19.2-42.37-42.795-42.37s-42.794,19.01-42.794,42.37a42.263,42.263,0,0,0,14.875,32.04,22.948,22.948,0,0,1-2.288,15.31,7.311,7.311,0,0,1,0,9.97,7.467,7.467,0,0,0,5.034,7.02v17.9a2.459,2.459,0,0,0,.743,1.76l0,0.01,22.655,22.43a2.535,2.535,0,0,0,3.56,0l22.656-22.43-0.005-.01a2.458,2.458,0,0,0,.742-1.76v-17.9a7.466,7.466,0,0,0,5.035-7.02,7.311,7.311,0,0,1,0-9.97,7.311,7.311,0,0,1,0-9.97,7.408,7.408,0,0,0-2.288-5.34A42.266,42.266,0,0,0,586.626,1206.44Zm-42.795,101.15-3.992-3.95h7.985Zm9.028-8.94H534.8l-9.676-9.58,3.6-2.37,6.155,4.06a2.53,2.53,0,0,0,2.792,0l6.157-4.06,6.155,4.06a2.53,2.53,0,0,0,2.792,0l6.158-4.06,3.6,2.37Zm11.111-14.62-3.637-2.4a2.53,2.53,0,0,0-2.792,0l-6.158,4.06-6.155-4.06a2.528,2.528,0,0,0-2.791,0l-6.158,4.06-6.155-4.06a2.528,2.528,0,0,0-2.791,0l-3.64,2.4v-12.79H563.97v12.79Zm2.517-17.78H521.175a2.49,2.49,0,1,1,0-4.98h45.312A2.49,2.49,0,1,1,566.487,1266.25Zm0-9.96H521.175a2.5,2.5,0,1,1,0-4.99h45.312A2.5,2.5,0,1,1,566.487,1256.29Zm0-9.97H521.175a2.5,2.5,0,1,1,0-4.99h45.3l0.031,0.01A2.49,2.49,0,1,1,566.487,1246.32Zm-30.53-37.69a2.547,2.547,0,0,0,3.162,0,12.092,12.092,0,0,0,4.579-11.37c-0.023-.16-0.053-0.32-0.083-0.48a11.085,11.085,0,0,0-.305-1.27c-0.04-.14-0.075-0.28-0.12-0.42a12.165,12.165,0,0,0-.638-1.55c-0.045-.09-0.1-0.17-0.148-0.27a12.835,12.835,0,0,0-.733-1.2c-0.045-.07-0.078-0.15-0.125-0.21a7.306,7.306,0,0,1,4.576,0c-0.048.06-.08,0.14-0.126,0.21a13.265,13.265,0,0,0-.732,1.2c-0.048.09-.1,0.18-0.149,0.27a12.016,12.016,0,0,0-.637,1.55c-0.045.14-.08,0.28-0.12,0.42a11.992,11.992,0,0,0-.3,1.27c-0.03.15-.061,0.32-0.083,0.48a11.624,11.624,0,0,0-.139,1.7,12.359,12.359,0,0,0,4.713,9.67,2.547,2.547,0,0,0,3.162,0,12.092,12.092,0,0,0,4.579-11.37c-0.023-.16-0.053-0.32-0.083-0.48a11.3,11.3,0,0,0-.3-1.27c-0.04-.14-0.076-0.28-0.123-0.42a12.307,12.307,0,0,0-.637-1.55c-0.045-.09-0.1-0.18-0.154-0.27a13.365,13.365,0,0,0-.72-1.2c-0.048-.07-0.083-0.15-0.133-0.22a7.358,7.358,0,0,1,2.288-.36c4.023,0,7.552,3.74,7.552,8.02a12.244,12.244,0,0,1-4.476,9.46l-9.722,8.02a2.467,2.467,0,0,0-.906,1.91v17.45H538.8V1218.9a2.465,2.465,0,0,0-.907-1.91l-9.721-8.02a12.244,12.244,0,0,1-4.476-9.46c0-4.28,3.529-8.02,7.552-8.02a7.344,7.344,0,0,1,2.285.36c-0.05.07-.085,0.15-0.133,0.22a12.913,12.913,0,0,0-.72,1.2c-0.048.09-.106,0.18-0.154,0.27a12.154,12.154,0,0,0-.636,1.55c-0.046.14-.081,0.28-0.124,0.42a12.24,12.24,0,0,0-.3,1.27c-0.031.15-.061,0.32-0.083,0.48a12.674,12.674,0,0,0-.131,1.7A12.358,12.358,0,0,0,535.957,1208.63Zm0.322-9.67a7.329,7.329,0,0,1,.169-1.46c0.025-.11.05-0.23,0.081-0.34a7.273,7.273,0,0,1,.485-1.36c0.018-.03.038-0.07,0.056-0.1a6.959,6.959,0,0,1,.468-0.73,6.959,6.959,0,0,1,.468.73c0.015,0.03.038,0.06,0.056,0.1a7.028,7.028,0,0,1,.485,1.36c0.031,0.11.056,0.23,0.081,0.34a7.329,7.329,0,0,1,.169,1.46,7.162,7.162,0,0,1-.169,1.46c-0.025.12-.05,0.24-0.081,0.35a7.536,7.536,0,0,1-.485,1.36c-0.015.03-.038,0.06-0.056,0.1a8.182,8.182,0,0,1-.468.73,8.182,8.182,0,0,1-.468-0.73c-0.018-.04-0.04-0.07-0.056-0.1a7.536,7.536,0,0,1-.485-1.36c-0.031-.12-0.056-0.23-0.081-0.35A7.162,7.162,0,0,1,536.279,1198.96Zm12.587,0a7.256,7.256,0,0,1,.169-1.46c0.025-.11.05-0.23,0.08-0.34a7.348,7.348,0,0,1,.486-1.36c0.018-.03.038-0.07,0.055-0.1a6.809,6.809,0,0,1,.469-0.73,6.959,6.959,0,0,1,.468.73c0.015,0.03.038,0.06,0.055,0.1a7.031,7.031,0,0,1,.486,1.36c0.031,0.11.056,0.23,0.081,0.34a7.327,7.327,0,0,1,.168,1.46,7.161,7.161,0,0,1-.168,1.46c-0.025.12-.05,0.24-0.081,0.35a7.54,7.54,0,0,1-.486,1.36c-0.015.03-.037,0.06-0.055,0.1a8.182,8.182,0,0,1-.468.73,7.976,7.976,0,0,1-.469-0.73c-0.017-.04-0.04-0.07-0.055-0.1a7.617,7.617,0,0,1-.486-1.36c-0.03-.12-0.055-0.23-0.08-0.35A7.092,7.092,0,0,1,548.866,1198.96Zm17.566,37.39H553.9v-16.28l8.815-7.28A17.163,17.163,0,0,0,569,1199.51c0-7.05-5.764-13.01-12.586-13.01a12.37,12.37,0,0,0-6.3,1.74,12.693,12.693,0,0,0-12.569,0,12.385,12.385,0,0,0-6.3-1.74c-6.822,0-12.587,5.96-12.587,13.01a17.2,17.2,0,0,0,6.289,13.29l8.815,7.27v16.28H521.231A37.761,37.761,0,1,1,566.432,1236.35Zm15.895-61.57,10.069-9.97,3.56,3.52-10.069,9.97Zm0,63.33,3.56-3.53,10.069,9.97-3.559,3.52Zm11.855-34.16h15.1v4.98h-15.1v-4.98Zm-102.473-35.62,3.56-3.53,10.069,9.97-3.56,3.53Zm0,76.22,10.07-9.97,3.56,3.53-10.07,9.97Zm-13.323-40.6h15.1v4.98h-15.1v-4.98Zm95.658,79.75h5.035v4.98h-5.035v-4.98Zm10.07,0h5.035v4.98h-5.035v-4.98Zm10.069,0h5.035v4.98h-5.035v-4.98Zm-105.728,0h5.035v4.98H488.45v-4.98Zm10.069,0h5.035v4.98h-5.035v-4.98Zm10.07,0h5.035v4.98h-5.035v-4.98Z" transform="translate(-478.375 -1164.06)"/>
</svg>
