<svg xmlns="http://www.w3.org/2000/svg" width="195.844" height="150" viewBox="0 0 195.844 150">
  <defs>
    <style>
      .cls-1 {
        fill: #fff;
        fill-rule: evenodd;
      }
    </style>
  </defs>
  <path id="ico2.svg" class="cls-1" d="M1017.15,1241.12c1.7-15.81,7.34-19.97,17.54-22.03C1036.15,1229.02,1031.35,1239.34,1017.15,1241.12Zm0.23-17.55c-1.72-15.81,2.9-21.09,12.41-25.31C1033.35,1207.64,1030.87,1218.76,1017.38,1223.57Zm-3.53-17.19c-5.06-15.06-1.68-21.22,6.71-27.4C1026.04,1187.37,1026,1198.77,1013.85,1206.38Zm-4.39-8.75c-14.492-6.14-16.834-12.76-15.895-23.14,9.825,1.41,18.245,8.9,16.045,22.92Zm1.34,7.78c-15.782,1.16-18.257-1.88-22.109-11.59C992.139,1192.35,1007.19,1193.46,1010.8,1205.41Zm-16.516,79.27c-8.4-13.48-6.879-17.1-.142-25.06C997.044,1262,1003.11,1275.89,994.284,1284.68Zm-10.558,9.41q-1.13.81-2.258,1.59c-5.26-14.87-2.992-18.08,5.268-24.38C988.879,1274.02,991.544,1286.86,983.726,1294.09Zm-17.072,9.81c-1.985-15.78.909-18.42,10.351-22.8C978.643,1284.48,978.339,1299.65,966.654,1303.9Zm-16.241,4.7c1.439-15.84,4.832-17.8,14.989-20.03C966.278,1292.22,962.734,1306.97,950.413,1308.6Zm-51,13.99c3.646-7.24,7.777-11.49,16.763-11.82a51.662,51.662,0,0,0,8.684,1.5C919.257,1324.82,908.357,1326.57,899.416,1322.59Zm9.352-34.02c10.157,2.23,13.55,4.19,14.989,20.03C911.436,1306.97,907.892,1292.22,908.768,1288.57Zm-11.6-7.47c9.442,4.38,12.336,7.02,10.351,22.8C895.831,1299.65,895.527,1284.48,897.165,1281.1Zm10.277,26.38c0.134,0.07.268,0.13,0.4,0.2-8.166,11.1-19.206,10.46-27.1,4.63,5.8-7.15,11.392-10.37,22.724-7C904.855,1306.12,906.186,1306.85,907.442,1307.48Zm-20.009-36.18c8.283,6.31,10.543,9.52,5.227,24.5C882.159,1289.12,885.108,1274.25,887.433,1271.3Zm-7.406-11.68c6.737,7.96,8.257,11.58-.141,25.06C871.06,1275.89,877.126,1262,880.027,1259.62Zm-16.655-54.21c3.607-11.95,18.658-13.06,22.107-11.59C881.627,1203.53,879.152,1206.57,863.372,1205.41Zm1.23-7.73c-2.354-14.2,6.118-21.77,16-23.19C881.546,1184.9,879.192,1191.52,864.6,1197.68Zm-4.72,8.42c-11.7-7.62-11.683-18.83-6.269-27.12,7.462,5.5,10.957,10.99,8.069,22.74Zm-3.095,17.47c-13.49-4.81-15.969-15.93-12.41-25.31C853.889,1202.48,858.51,1207.76,856.787,1223.57Zm0.233,17.55c-14.2-1.78-19-12.1-17.537-22.03C849.676,1221.15,855.32,1225.31,857.02,1241.12Zm2.169,12.33q0.564,2.46,1.319,4.79c-13.914,1.08-20.662-7.86-21.346-17.75C848.352,1240.32,854.419,1242.52,859.189,1253.45Zm9.366,20.58c-13.635,4.39-22.306-2.95-25.126-12.58C853.541,1259.01,860.4,1260.4,868.555,1274.03Zm6.74-27.42c4.875,9.24,5.584,13.1-5.5,24.45C863.055,1260.56,871.952,1248.31,875.3,1246.61Zm3.377-40.75c-1.678,10.28-3.442,13.8-18.956,16.08l0.143-2.02C862.14,1209.03,875.2,1205.21,878.672,1205.86Zm-15.822,49.71c-4.332-11.71,6.98-21.75,10.607-22.68C876.242,1242.96,876.106,1246.89,862.85,1255.57Zm11.751-36.48c0.563,10.43-.41,14.24-15.214,19.85C857.662,1226.57,870.858,1219.22,874.6,1219.09Zm4.713,68.76c-12.376,7.23-22.416,1.94-27.23-6.85C861.438,1276.44,868.434,1276.31,879.314,1287.85Zm13.467,11.17c-10.539,9.74-21.476,6.75-28.06-.8C872.879,1291.74,879.684,1290.1,892.781,1299.02Zm81.973,23.57c-9.129,4.07-20.305,2.17-25.8-11.12C964.571,1308.91,970.061,1313.27,974.754,1322.59Zm-8.868-15.52c0.822-.31,1.646-0.65,2.469-0.99,12.932-4.56,18.874-1.39,25.066,6.23C985.389,1318.24,974.091,1318.81,965.886,1307.07Zm15.5-8.05c13.1-8.92,19.9-7.28,28.061-.8C1002.86,1305.77,991.928,1308.76,981.389,1299.02Zm13.466-11.17c10.885-11.54,17.875-11.41,27.235-6.85C1017.27,1289.79,1007.23,1295.08,994.855,1287.85Zm11.075-13.72a45.072,45.072,0,0,0,2.25-4.03c7.09-9.94,13.52-10.82,22.56-8.65C1027.94,1271,1019.38,1278.3,1005.93,1274.13Zm29.08-33.64c-0.69,10.01-7.59,19.05-21.85,17.72C1018.21,1243.13,1024.61,1240.29,1035.01,1240.49Zm-20.4-18.53c-15.662-2.28-17.428-5.79-19.112-16.1C999.18,1205.17,1013.64,1209.51,1014.61,1221.96Zm-15.735,24.65c3.345,1.7,12.235,13.95,5.5,24.45C993.291,1259.71,994,1255.85,998.875,1246.61Zm12.445,8.96c-13.256-8.68-13.392-12.61-10.61-22.68C1004.34,1233.82,1015.65,1243.86,1011.32,1255.57Zm3.46-16.63c-14.8-5.61-15.775-9.42-15.211-19.85C1003.31,1219.22,1016.51,1226.57,1014.78,1238.94Zm-94.136,7.82v-5.93H904.97v-7.18h15.342v-5.93H904.97v-6.7h15.674v-5.94H898.225v31.68h22.419Zm30.922,0-7.125-12.06c3.42-.81,6.935-3.8,6.935-9.41,0-5.89-4.037-10.21-10.639-10.21h-14.82v31.68h6.745v-11.25h4.94l6.222,11.25h7.742Zm-11.827-17.19h-7.077v-8.55h7.077c2.708,0,4.75,1.61,4.75,4.27S942.447,1229.57,939.739,1229.57Zm23.465,17.19v-11.25h8.075c6.839,0,10.639-4.71,10.639-10.22,0-5.55-3.752-10.21-10.639-10.21h-14.82v31.68H963.2Zm7.172-17.19H963.2v-8.55h7.172c2.66,0,4.655,1.61,4.655,4.27C975.031,1227.91,973.036,1229.57,970.376,1229.57Z" transform="translate(-839.156 -1174.5)"/>
</svg>
