<svg xmlns="http://www.w3.org/2000/svg" width="135" height="135" viewBox="0 0 135 135">
  <path id="ico3.svg" class="cls-1" d="M1275.75,1287.5a15.774,15.774,0,0,0-15.75,15.75,2.253,2.253,0,0,0,2.25,2.25h27a2.253,2.253,0,0,0,2.25-2.25A15.774,15.774,0,0,0,1275.75,1287.5Zm-11.02,13.5a11.237,11.237,0,0,1,8.77-8.75v4.25h4.5v-4.25a11.25,11.25,0,0,1,8.77,8.75h-22.04Zm128.02-33.75h-3.95c-0.12-.31-0.25-0.62-0.39-0.94l2.79-2.79a2.245,2.245,0,0,0,0-3.18l-9.54-9.55a2.229,2.229,0,0,0-1.69-.63,11.231,11.231,0,0,0,6.03-9.91v-58.5a11.267,11.267,0,0,0-11.25-11.25h-103.5a11.267,11.267,0,0,0-11.25,11.25v58.5a11.267,11.267,0,0,0,11.25,11.25h29.36l-8.5,15.75h-3.99a7.875,7.875,0,0,0,0,15.75h48.38a2.253,2.253,0,0,0,2.25,2.25h3.95c0.12,0.31.25,0.62,0.39,0.94l-2.79,2.79a2.245,2.245,0,0,0,0,3.18l9.54,9.54a2.245,2.245,0,0,0,3.18,0l2.79-2.79c0.32,0.14.63,0.27,0.94,0.39v3.95a2.253,2.253,0,0,0,2.25,2.25h13.5a2.253,2.253,0,0,0,2.25-2.25v-3.95c0.31-.12.62-0.25,0.94-0.39l2.79,2.79a2.245,2.245,0,0,0,3.18,0l9.54-9.54a2.245,2.245,0,0,0,0-3.18l-2.79-2.79c0.14-.32.27-0.63,0.39-0.94h3.95A2.253,2.253,0,0,0,1395,1283v-13.5A2.247,2.247,0,0,0,1392.75,1267.25Zm-128.25-85.5a6.76,6.76,0,0,1,6.75-6.75h103.5a6.76,6.76,0,0,1,6.75,6.75V1229h-117v-47.25Zm6.75,65.25a6.76,6.76,0,0,1-6.75-6.75v-6.75h117v6.75a6.76,6.76,0,0,1-6.75,6.75h-103.5Zm107.2,3.82-2.76,2.77c-0.32-.14-0.63-0.27-0.94-0.39v-1.7A11.133,11.133,0,0,0,1378.45,1250.82Zm-21.7.68v1.7c-0.31.12-.62,0.25-0.94,0.39l-2.08-2.09h3.02Zm-7.62,0-1.94,1.94-1.32-1.94h3.26Zm-12.63,27h-48.38a3.375,3.375,0,0,1,0-6.75h48.38v6.75Zm-39.28-11.25,8.5-15.75h34.71l3.53,5.18-3.66,3.66a2.245,2.245,0,0,0,0,3.18l2.79,2.79c-0.14.31-.27,0.62-0.39,0.94h-45.48Zm93.28,13.5h-3.28a2.245,2.245,0,0,0-2.15,1.57,19.878,19.878,0,0,1-1.37,3.28,2.26,2.26,0,0,0,.4,2.64l2.33,2.33-6.36,6.36-2.33-2.33a2.25,2.25,0,0,0-2.63-.41,20.945,20.945,0,0,1-3.29,1.38,2.257,2.257,0,0,0-1.57,2.15V1301h-9v-3.28a2.257,2.257,0,0,0-1.57-2.15,19.972,19.972,0,0,1-3.29-1.37,2.247,2.247,0,0,0-2.63.4l-2.33,2.33-6.36-6.36,2.33-2.33a2.247,2.247,0,0,0,.4-2.63,19.972,19.972,0,0,1-1.37-3.29,2.245,2.245,0,0,0-2.15-1.57H1341v-9h3.28a2.257,2.257,0,0,0,2.15-1.57,19.972,19.972,0,0,1,1.37-3.29,2.247,2.247,0,0,0-.4-2.63l-2.33-2.33,6.36-6.36,2.33,2.33a2.23,2.23,0,0,0,2.63.4,20.243,20.243,0,0,1,3.28-1.37,2.263,2.263,0,0,0,1.58-2.15v-3.28h9v3.28a2.267,2.267,0,0,0,1.57,2.15,19.972,19.972,0,0,1,3.29,1.37,2.234,2.234,0,0,0,2.63-.41l2.33-2.33,6.36,6.37-2.33,2.33a2.245,2.245,0,0,0-.4,2.63,21.178,21.178,0,0,1,1.37,3.28,2.254,2.254,0,0,0,2.15,1.58h3.28v9Zm-24.75-18a13.5,13.5,0,1,0,13.5,13.5A13.507,13.507,0,0,0,1365.75,1262.75Zm0,22.5a9,9,0,1,1,9-9A9.014,9.014,0,0,1,1365.75,1285.25Zm-61.41-97.41-3.18-3.18-15.75,15.75a2.245,2.245,0,0,0,0,3.18l15.75,15.75,3.18-3.18L1290.18,1202Zm49.5,12.57-15.75-15.75-3.18,3.18,14.16,14.16-14.16,14.16,3.18,3.18,15.75-15.75A2.245,2.245,0,0,0,1353.84,1200.41Zm-46.36,18.58,20.25-40.49,4.02,2.02-20.24,40.49Zm40.27-3.49h4.5v4.5h-4.5v-4.5Zm9,0h4.5v4.5h-4.5v-4.5Zm9,0h4.5v4.5h-4.5v-4.5Z" transform="translate(-1260 -1170.5)"/>
</svg>
